<svg width="483" height="75" viewBox="0 0 483 75" fill="none" xmlns="http://www.w3.org/2000/svg">
<g clip-path="url(#clip0_205_2)">
<path d="M126.129 38.5547C126.168 38.4766 126.188 38.418 126.188 38.3789L143.941 23.6133C144.137 23.418 144.293 23.2031 144.41 22.9688C144.566 22.6953 144.703 22.4805 144.82 22.3242C144.977 22.1289 145.152 21.9922 145.348 21.9141C145.582 21.8359 145.875 21.8555 146.227 21.9727C146.773 22.168 147.066 22.5 147.105 22.9688C147.184 23.3984 147.145 23.8672 146.988 24.375C146.949 24.4141 146.93 24.4727 146.93 24.5508C146.93 24.5898 146.91 24.6289 146.871 24.668C145.582 26.4648 144.293 27.9297 143.004 29.0625C141.754 30.1953 140.445 31.25 139.078 32.2266C137.711 33.2031 136.266 34.1992 134.742 35.2148C133.258 36.2305 131.656 37.5195 129.938 39.082L130.348 40.0195C130.387 40.0977 130.816 40.4102 131.637 40.957C132.457 41.4648 133.414 42.0703 134.508 42.7734C135.602 43.4375 136.734 44.1211 137.906 44.8242C139.117 45.5273 140.074 46.0938 140.777 46.5234C140.934 46.6016 141.227 46.7383 141.656 46.9336C142.125 47.1289 142.613 47.3242 143.121 47.5195C143.668 47.7148 144.176 47.9102 144.645 48.1055C145.113 48.2617 145.445 48.3594 145.641 48.3984C145.758 48.8281 145.836 49.1797 145.875 49.4531C145.914 49.7266 145.855 50.0391 145.699 50.3906C145.543 50.8594 145.23 51.2695 144.762 51.6211C144.293 51.9727 143.824 52.2266 143.355 52.3828C142.77 51.8359 141.891 51.2109 140.719 50.5078C139.586 49.8047 138.336 49.0625 136.969 48.2812C135.641 47.4609 134.273 46.6211 132.867 45.7617C131.461 44.9023 130.211 44.0625 129.117 43.2422C128.023 42.4219 127.164 41.6406 126.539 40.8984C125.953 40.1172 125.777 39.3945 126.012 38.7305L126.129 38.5547ZM148.453 51.7383C148.453 51.6211 148.551 51.4648 148.746 51.2695C148.941 51.0742 149.098 50.9766 149.215 50.9766C149.723 52.1094 150.289 53.3008 150.914 54.5508C151.539 55.8008 152.262 56.9531 153.082 58.0078C153.941 59.0625 154.918 59.9219 156.012 60.5859C157.105 61.2891 158.355 61.6406 159.762 61.6406C161.012 61.6406 162.105 61.3086 163.043 60.6445C163.98 59.9805 164.625 59.0039 164.977 57.7148C165.211 54.5117 165.191 51.3281 164.918 48.1641C164.645 45 164.293 41.8555 163.863 38.7305C163.434 35.5664 163.004 32.4219 162.574 29.2969C162.145 26.1328 161.91 22.9492 161.871 19.7461C161.871 19.5508 161.852 19.3164 161.812 19.043C161.812 18.7305 161.852 18.4375 161.93 18.1641C162.008 17.8906 162.125 17.6563 162.281 17.4609C162.438 17.2656 162.711 17.168 163.102 17.168C163.531 17.168 163.902 17.4414 164.215 17.9883C165.191 23.6914 166.07 29.4922 166.852 35.3906C167.633 41.2891 168.023 47.1289 168.023 52.9102C168.023 54.4727 167.906 55.918 167.672 57.2461C167.477 58.5742 167.066 59.707 166.441 60.6445C165.816 61.6211 164.957 62.3828 163.863 62.9297C162.77 63.5156 161.363 63.8086 159.645 63.8086C158.16 63.8086 156.734 63.457 155.367 62.7539C154.039 62.0898 152.848 61.1719 151.793 60C150.777 58.8672 149.957 57.5781 149.332 56.1328C148.746 54.6875 148.453 53.2227 148.453 51.7383ZM171.422 51.9727C171.148 50.1758 171.012 48.4375 171.012 46.7578C171.012 45.0391 171.109 43.3008 171.305 41.543C171.539 39.7852 171.852 37.9688 172.242 36.0938C172.672 34.1797 173.16 32.1289 173.707 29.9414C173.707 29.5117 173.824 29.1211 174.059 28.7695C174.293 28.3789 174.605 28.0664 174.996 27.832C175.387 27.5586 175.797 27.3437 176.227 27.1875C176.656 27.0313 177.066 26.9531 177.457 26.9531C178.316 26.9531 179.098 27.2266 179.801 27.7734C180.504 28.3203 181.129 28.9844 181.676 29.7656C182.262 30.5469 182.75 31.3867 183.141 32.2852C183.57 33.1445 183.922 33.8867 184.195 34.5117C184.508 35.8789 184.723 37.4414 184.84 39.1992C184.996 40.918 185.016 42.6758 184.898 44.4727C184.781 46.2695 184.508 48.0469 184.078 49.8047C183.648 51.5234 183.043 53.1055 182.262 54.5508C181.48 55.9961 180.465 57.207 179.215 58.1836C178.004 59.1602 176.559 59.7656 174.879 60C173.98 60 173.297 59.707 172.828 59.1211C172.359 58.4961 172.008 57.7539 171.773 56.8945C171.578 55.9961 171.461 55.0977 171.422 54.1992C171.422 53.3008 171.422 52.5586 171.422 51.9727ZM174.41 51.7969C174.41 52.1875 174.41 52.5586 174.41 52.9102C174.449 53.2617 174.488 53.6133 174.527 53.9648C174.605 54.2773 174.684 54.6289 174.762 55.0195C174.879 55.3711 175.016 55.7812 175.172 56.25H175.523C176.461 56.25 177.262 55.9375 177.926 55.3125C178.59 54.6875 179.156 53.8867 179.625 52.9102C180.094 51.8945 180.484 50.7812 180.797 49.5703C181.109 48.3203 181.344 47.1094 181.5 45.9375C181.695 44.7266 181.812 43.6133 181.852 42.5977C181.93 41.543 181.969 40.7031 181.969 40.0781V38.9062C181.969 38.3984 181.949 37.832 181.91 37.207C181.871 36.543 181.793 35.8789 181.676 35.2148C181.598 34.5117 181.461 33.8867 181.266 33.3398C181.07 32.7539 180.816 32.2852 180.504 31.9336C180.191 31.582 179.781 31.4062 179.273 31.4062C178.414 31.1328 177.672 31.1914 177.047 31.582C176.461 31.9727 175.973 32.6367 175.582 33.5742C175.23 34.4727 174.957 35.5859 174.762 36.9141C174.566 38.2422 174.449 39.707 174.41 41.3086C174.371 42.9102 174.352 44.6094 174.352 46.4062C174.391 48.2031 174.41 50 174.41 51.7969ZM186.363 44.2383C186.363 44.1602 186.383 43.9062 186.422 43.4766C186.461 43.0078 186.539 42.5391 186.656 42.0703C186.773 41.5625 186.969 41.1328 187.242 40.7812C187.555 40.4297 187.965 40.332 188.473 40.4883C190.191 38.3008 191.715 36.1523 193.043 34.043C194.41 31.8945 195.699 29.7656 196.91 27.6562C198.121 25.5078 199.293 23.3398 200.426 21.1523C201.598 18.9258 202.848 16.6406 204.176 14.2969C204.371 13.8672 204.586 13.6133 204.82 13.5352C205.055 13.457 205.348 13.418 205.699 13.418C205.934 13.418 206.246 13.457 206.637 13.5352C207.027 13.6133 207.223 13.8672 207.223 14.2969V36.7383C208.551 36.7383 209.84 36.582 211.09 36.2695C212.34 35.957 213.629 35.8008 214.957 35.8008C215.309 36.9336 215.27 37.6953 214.84 38.0859C214.41 38.4766 213.766 38.7305 212.906 38.8477C212.086 38.9648 211.148 39.0625 210.094 39.1406C209.039 39.1797 208.082 39.375 207.223 39.7266V58.4766C207.223 58.6719 207.086 58.8867 206.812 59.1211C206.578 59.3164 206.285 59.4922 205.934 59.6484C205.621 59.7656 205.289 59.8828 204.938 60C204.625 60.0781 204.371 60.1172 204.176 60.1172V40.2539L186.363 44.2383ZM204.176 22.5C203.316 23.8672 202.34 25.293 201.246 26.7773C200.191 28.2617 199.137 29.7656 198.082 31.2891C197.066 32.8125 196.09 34.3555 195.152 35.918C194.254 37.4414 193.531 38.9648 192.984 40.4883H193.688C194.469 40.293 195.445 40.0391 196.617 39.7266C197.828 39.375 199 39.043 200.133 38.7305C201.266 38.3789 202.223 38.0859 203.004 37.8516L204.176 37.5V22.5ZM217.652 51.9727C217.379 50.1758 217.242 48.4375 217.242 46.7578C217.242 45.0391 217.34 43.3008 217.535 41.543C217.77 39.7852 218.082 37.9688 218.473 36.0938C218.902 34.1797 219.391 32.1289 219.938 29.9414C219.938 29.5117 220.055 29.1211 220.289 28.7695C220.523 28.3789 220.836 28.0664 221.227 27.832C221.617 27.5586 222.027 27.3437 222.457 27.1875C222.887 27.0313 223.297 26.9531 223.688 26.9531C224.547 26.9531 225.328 27.2266 226.031 27.7734C226.734 28.3203 227.359 28.9844 227.906 29.7656C228.492 30.5469 228.98 31.3867 229.371 32.2852C229.801 33.1445 230.152 33.8867 230.426 34.5117C230.738 35.8789 230.953 37.4414 231.07 39.1992C231.227 40.918 231.246 42.6758 231.129 44.4727C231.012 46.2695 230.738 48.0469 230.309 49.8047C229.879 51.5234 229.273 53.1055 228.492 54.5508C227.711 55.9961 226.695 57.207 225.445 58.1836C224.234 59.1602 222.789 59.7656 221.109 60C220.211 60 219.527 59.707 219.059 59.1211C218.59 58.4961 218.238 57.7539 218.004 56.8945C217.809 55.9961 217.691 55.0977 217.652 54.1992C217.652 53.3008 217.652 52.5586 217.652 51.9727ZM220.641 51.7969C220.641 52.1875 220.641 52.5586 220.641 52.9102C220.68 53.2617 220.719 53.6133 220.758 53.9648C220.836 54.2773 220.914 54.6289 220.992 55.0195C221.109 55.3711 221.246 55.7812 221.402 56.25H221.754C222.691 56.25 223.492 55.9375 224.156 55.3125C224.82 54.6875 225.387 53.8867 225.855 52.9102C226.324 51.8945 226.715 50.7812 227.027 49.5703C227.34 48.3203 227.574 47.1094 227.73 45.9375C227.926 44.7266 228.043 43.6133 228.082 42.5977C228.16 41.543 228.199 40.7031 228.199 40.0781V38.9062C228.199 38.3984 228.18 37.832 228.141 37.207C228.102 36.543 228.023 35.8789 227.906 35.2148C227.828 34.5117 227.691 33.8867 227.496 33.3398C227.301 32.7539 227.047 32.2852 226.734 31.9336C226.422 31.582 226.012 31.4062 225.504 31.4062C224.645 31.1328 223.902 31.1914 223.277 31.582C222.691 31.9727 222.203 32.6367 221.812 33.5742C221.461 34.4727 221.188 35.5859 220.992 36.9141C220.797 38.2422 220.68 39.707 220.641 41.3086C220.602 42.9102 220.582 44.6094 220.582 46.4062C220.621 48.2031 220.641 50 220.641 51.7969ZM241.617 58.8281C241.617 58.0469 242.105 57.0508 243.082 55.8398C244.059 54.5898 245.27 53.1836 246.715 51.6211C248.16 50.0586 249.742 48.3594 251.461 46.5234C253.18 44.6875 254.762 42.793 256.207 40.8398C257.652 38.8477 258.863 36.8359 259.84 34.8047C260.816 32.7344 261.305 30.7031 261.305 28.7109C261.305 27.6562 261.012 26.7578 260.426 26.0156C259.84 25.2344 259.078 24.5703 258.141 24.0234C257.242 23.4766 256.207 23.0469 255.035 22.7344C253.902 22.4219 252.75 22.1875 251.578 22.0312C250.406 21.8359 249.293 21.7187 248.238 21.6797C247.184 21.6016 246.285 21.5625 245.543 21.5625C245.348 21.5625 245.094 21.582 244.781 21.6211C244.469 21.6211 244.137 21.6406 243.785 21.6797C243.473 21.6797 243.18 21.6992 242.906 21.7383C242.633 21.7773 242.477 21.7969 242.438 21.7969L241.676 22.5C241.676 22.5781 241.656 22.9102 241.617 23.4961C241.617 24.082 241.598 24.7461 241.559 25.4883C241.559 26.2305 241.559 26.9922 241.559 27.7734V29.5898C241.559 33.5352 241.695 37.4609 241.969 41.3672C242.281 45.2344 242.438 49.1406 242.438 53.0859C242.438 53.3203 242.438 53.5742 242.438 53.8477C242.477 54.1211 242.477 54.3945 242.438 54.668C242.398 54.9023 242.281 55.1172 242.086 55.3125C241.93 55.4688 241.676 55.5469 241.324 55.5469C241.09 55.5469 240.855 55.4883 240.621 55.3711C240.387 55.2539 240.25 55.0586 240.211 54.7852L237.926 23.9648C237.809 24.043 237.594 24.1602 237.281 24.3164C237.008 24.4336 236.715 24.5703 236.402 24.7266C236.09 24.8828 235.777 25.0586 235.465 25.2539C235.191 25.4102 235.016 25.4883 234.938 25.4883C234.898 25.4883 234.82 25.5078 234.703 25.5469C234.625 25.5469 234.566 25.5469 234.527 25.5469C234.332 25.5469 234.098 25.5078 233.824 25.4297C233.59 25.3125 233.473 25.0781 233.473 24.7266C233.473 24.1406 233.59 23.6719 233.824 23.3203C234.098 22.9297 234.43 22.5781 234.82 22.2656C235.25 21.9531 235.699 21.6406 236.168 21.3281C236.637 21.0156 237.066 20.625 237.457 20.1562C237.887 19.6484 238.219 19.0234 238.453 18.2812C238.727 17.5391 238.863 16.6016 238.863 15.4688C239.645 15.4688 240.133 15.6055 240.328 15.8789C240.523 16.1523 240.641 16.4844 240.68 16.875C240.719 17.2266 240.758 17.5977 240.797 17.9883C240.875 18.3398 241.168 18.5938 241.676 18.75C242.77 18.7109 244.078 18.7109 245.602 18.75C247.164 18.7891 248.785 18.9258 250.465 19.1602C252.184 19.3555 253.863 19.668 255.504 20.0977C257.184 20.5273 258.668 21.1328 259.957 21.9141C261.285 22.6953 262.32 23.6914 263.062 24.9023C263.844 26.0742 264.195 27.5195 264.117 29.2383C263.609 32.2461 262.633 35.1367 261.188 37.9102C259.781 40.6836 258.102 43.3594 256.148 45.9375C254.234 48.4766 252.145 50.918 249.879 53.2617C247.652 55.6055 245.426 57.8516 243.199 60C243.16 60 243.102 60 243.023 60C242.945 60.0391 242.887 60.0586 242.848 60.0586C242.496 60.0586 242.203 59.9414 241.969 59.707C241.734 59.4727 241.617 59.1797 241.617 58.8281ZM268.688 47.3438C268.492 47.3828 268.199 47.4414 267.809 47.5195C267.418 47.5977 267.008 47.6172 266.578 47.5781C266.148 47.5391 265.777 47.4219 265.465 47.2266C265.113 47.0312 264.938 46.6992 264.938 46.2305C264.938 45.957 264.996 45.7617 265.113 45.6445C265.23 45.5273 265.426 45.3516 265.699 45.1172C266.559 44.4141 267.281 43.5156 267.867 42.4219C268.492 41.2891 269.059 40.0977 269.566 38.8477C270.074 37.5586 270.602 36.2891 271.148 35.0391C271.734 33.75 272.398 32.5977 273.141 31.582C273.883 30.5664 274.801 29.7461 275.895 29.1211C276.988 28.4961 278.336 28.2031 279.938 28.2422C280.602 28.2422 281.344 28.3984 282.164 28.7109C282.984 29.0234 283.746 29.4531 284.449 30C285.152 30.5078 285.738 31.1328 286.207 31.875C286.676 32.6172 286.91 33.4375 286.91 34.3359C287.105 34.6484 286.91 35.0977 286.324 35.6836C285.777 36.2695 285.016 36.9141 284.039 37.6172C283.062 38.2812 281.949 38.9844 280.699 39.7266C279.488 40.4297 278.316 41.0938 277.184 41.7188C276.051 42.3438 275.055 42.8906 274.195 43.3594C273.336 43.8281 272.77 44.1797 272.496 44.4141C272.301 44.8047 272.145 45.2539 272.027 45.7617C271.91 46.2695 271.812 46.7578 271.734 47.2266C271.695 47.6562 271.656 48.0664 271.617 48.457C271.617 48.8086 271.617 49.082 271.617 49.2773C271.617 50.0195 271.578 50.8398 271.5 51.7383C271.461 52.6367 271.5 53.4961 271.617 54.3164C271.773 55.0977 272.105 55.7617 272.613 56.3086C273.121 56.8164 273.98 57.0703 275.191 57.0703C276.48 57.0703 277.691 56.7578 278.824 56.1328C279.957 55.4688 281.012 54.668 281.988 53.7305C282.965 52.793 283.844 51.7773 284.625 50.6836C285.445 49.5898 286.168 48.5742 286.793 47.6367C287.457 46.6602 288.043 45.8594 288.551 45.2344C289.059 44.6094 289.488 44.2969 289.84 44.2969C290.23 44.2969 290.641 44.375 291.07 44.5312C291.539 44.6484 291.773 44.9609 291.773 45.4688C291.773 46.1719 291.48 47.0117 290.895 47.9883C290.348 48.9648 289.605 50 288.668 51.0938C287.77 52.1875 286.715 53.2812 285.504 54.375C284.332 55.4297 283.141 56.3867 281.93 57.2461C280.719 58.0664 279.527 58.75 278.355 59.2969C277.184 59.8047 276.148 60.0586 275.25 60.0586C273.492 60.0586 272.164 59.6289 271.266 58.7695C270.367 57.9102 269.723 56.8359 269.332 55.5469C268.98 54.2578 268.785 52.8906 268.746 51.4453C268.746 49.9609 268.727 48.5938 268.688 47.3438ZM279.469 31.5234C278.805 31.5234 278.102 31.8555 277.359 32.5195C276.617 33.1445 275.914 33.9258 275.25 34.8633C274.625 35.7617 274.098 36.6992 273.668 37.6758C273.277 38.6133 273.082 39.3945 273.082 40.0195C273.668 40.0195 274.508 39.8047 275.602 39.375C276.734 38.9062 277.848 38.3398 278.941 37.6758C280.035 37.0117 280.992 36.3086 281.812 35.5664C282.633 34.8242 283.043 34.1211 283.043 33.457C283.043 33.1055 282.906 32.8125 282.633 32.5781C282.359 32.3438 282.027 32.1484 281.637 31.9922C281.285 31.8359 280.914 31.7188 280.523 31.6406C280.133 31.5625 279.781 31.5234 279.469 31.5234ZM293.941 36.0352C293.941 35.9961 293.922 35.9375 293.883 35.8594C293.883 35.7422 293.883 35.6641 293.883 35.625C293.883 35.0391 294.117 34.707 294.586 34.6289C295.055 34.5117 295.484 34.4531 295.875 34.4531C296.305 34.4531 296.793 34.8242 297.34 35.5664C297.887 36.2695 298.492 37.2266 299.156 38.4375C299.859 39.6094 300.562 40.8984 301.266 42.3047C302.008 43.7109 302.75 45.0977 303.492 46.4648C304.273 47.793 305.055 49.0039 305.836 50.0977C306.656 51.1914 307.438 51.9922 308.18 52.5C308.414 48.9453 308.59 45.918 308.707 43.418C308.824 40.918 308.902 38.8086 308.941 37.0898C309.02 35.3711 309.059 34.0234 309.059 33.0469C309.059 32.0312 309.039 31.25 309 30.7031C309 30.1562 308.98 29.8047 308.941 29.6484C308.941 29.4531 308.941 29.3164 308.941 29.2383C308.941 28.5352 309.059 28.1055 309.293 27.9492C309.566 27.793 309.918 27.7148 310.348 27.7148C310.855 27.7148 311.383 27.793 311.93 27.9492C312.477 28.1055 312.75 28.4961 312.75 29.1211C312.867 31.6602 312.867 34.2383 312.75 36.8555C312.672 39.4336 312.535 42.0117 312.34 44.5898C312.145 47.1289 311.988 49.6289 311.871 52.0898C311.754 54.5508 311.754 56.9336 311.871 59.2383C311.793 59.3164 311.617 59.4141 311.344 59.5312C311.07 59.6094 310.777 59.6875 310.465 59.7656C310.152 59.8438 309.84 59.9023 309.527 59.9414C309.254 59.9805 309.059 60 308.941 60C308.551 59.9219 307.945 59.3945 307.125 58.418C306.305 57.4023 305.387 56.1328 304.371 54.6094C303.355 53.0859 302.301 51.3867 301.207 49.5117C300.113 47.6367 299.059 45.8203 298.043 44.0625C297.066 42.3047 296.207 40.7031 295.465 39.2578C294.723 37.8125 294.215 36.7383 293.941 36.0352ZM314.801 62.6953L328.395 18.1055H331.266L316.734 65.0391C316.227 65.0391 315.777 64.8438 315.387 64.4531C314.996 64.0625 314.801 63.6133 314.801 63.1055V62.6953ZM335.602 51.3281C335.719 50.5469 336.285 49.6484 337.301 48.6328C338.355 47.5781 339.586 46.5039 340.992 45.4102C342.438 44.2773 343.941 43.125 345.504 41.9531C347.105 40.7812 348.512 39.668 349.723 38.6133C350.973 37.5195 351.91 36.4844 352.535 35.5078C353.199 34.5312 353.297 33.6914 352.828 32.9883L336.422 24.1406C336.305 24.0234 336.148 23.7891 335.953 23.4375C335.758 23.0469 335.66 22.7734 335.66 22.6172C335.66 22.4609 335.699 22.2852 335.777 22.0898C335.895 21.8945 336.031 21.6797 336.188 21.4453C336.344 21.2109 336.5 21.0156 336.656 20.8594C336.852 20.6641 337.027 20.5078 337.184 20.3906L355.113 30.7617C356.051 31.3867 356.461 32.2461 356.344 33.3398C356.227 34.3945 355.738 35.5664 354.879 36.8555C354.059 38.1445 352.965 39.4922 351.598 40.8984C350.23 42.3047 348.785 43.6719 347.262 45C345.738 46.3281 344.234 47.5586 342.75 48.6914C341.266 49.8242 339.977 50.7812 338.883 51.5625C337.828 52.3047 337.027 52.8125 336.48 53.0859C335.973 53.3203 335.953 53.2422 336.422 52.8516C335.992 52.8516 335.738 52.6562 335.66 52.2656C335.621 51.875 335.602 51.5625 335.602 51.3281Z" fill="url(#paint0_linear_205_2)"/>
</g>
<defs>
<linearGradient id="paint0_linear_205_2" x1="65.2328" y1="37.5" x2="483" y2="37.5" gradientUnits="userSpaceOnUse">
<stop stop-color="#F8F8F2"/>
<stop offset="0.236875" stop-color="#A7A7A7"/>
<stop offset="0.445373" stop-color="#44475A"/>
<stop offset="0.667321" stop-color="#7D7F8B"/>
<stop offset="0.71875" stop-color="#7D7F8B"/>
<stop offset="0.71875" stop-color="#A7A7A7"/>
<stop offset="1" stop-color="#D9D9D9"/>
</linearGradient>
<clipPath id="clip0_205_2">
<rect width="483" height="75" fill="white"/>
</clipPath>
</defs>
</svg>
