<svg width="188" height="134" viewBox="0 0 188 134" fill="none" xmlns="http://www.w3.org/2000/svg">
<path d="M33.9805 80.7461C33.707 78.6888 33.5378 76.5664 33.4727 74.3789C33.4076 72.1784 33.4076 70.056 33.4727 68.0117C33.3555 68.0768 33.2513 68.1354 33.1602 68.1875C33.069 68.2396 32.9583 68.2656 32.8281 68.2656C32.737 68.2656 32.6523 68.2266 32.5742 68.1484C32.4961 68.0703 32.457 67.9727 32.457 67.8555V67.7969C32.457 67.7839 32.4635 67.7643 32.4766 67.7383C32.5807 67.6211 32.7044 67.4193 32.8477 67.1328C33.0039 66.8464 33.1667 66.5664 33.3359 66.293C33.5052 66.0065 33.668 65.7591 33.8242 65.5508C33.9805 65.3294 34.1172 65.2188 34.2344 65.2188C34.3516 65.2188 34.4362 65.2513 34.4883 65.3164C34.5534 65.3685 34.6055 65.4336 34.6445 65.5117C34.6836 65.5898 34.7227 65.681 34.7617 65.7852C34.8138 65.8763 34.8854 65.9479 34.9766 66C35.3672 65.7656 35.7969 65.5638 36.2656 65.3945C36.7344 65.2253 37.2031 65.1081 37.6719 65.043C38.1536 64.9779 38.6159 64.9714 39.0586 65.0234C39.5143 65.0625 39.9245 65.1732 40.2891 65.3555C40.6536 65.5247 40.9661 65.7721 41.2266 66.0977C41.487 66.4232 41.6562 66.8333 41.7344 67.3281C41.7214 67.9661 41.5326 68.5716 41.168 69.1445C40.8164 69.7044 40.3737 70.2188 39.8398 70.6875C39.319 71.1432 38.7526 71.5534 38.1406 71.918C37.5286 72.2695 36.9622 72.5755 36.4414 72.8359C35.9336 73.0964 35.5104 73.3047 35.1719 73.4609C34.8464 73.6172 34.6966 73.7083 34.7227 73.7344V80.7461C34.7227 80.8503 34.6771 80.9219 34.5859 80.9609C34.4948 81 34.4102 81.0195 34.332 81.0195C34.1888 81.0195 34.0716 80.9284 33.9805 80.7461ZM34.7227 67.25C34.6836 67.6276 34.6315 68.0443 34.5664 68.5C34.5143 68.9427 34.4753 69.4049 34.4492 69.8867C34.4232 70.3555 34.4232 70.8177 34.4492 71.2734C34.4883 71.7292 34.5794 72.1393 34.7227 72.5039C35.2826 72.2565 35.8685 71.9831 36.4805 71.6836C37.0924 71.3711 37.6784 71.0195 38.2383 70.6289C38.7982 70.2383 39.2995 69.8086 39.7422 69.3398C40.1979 68.8581 40.5365 68.3242 40.7578 67.7383C40.7578 67.4258 40.6406 67.1589 40.4062 66.9375C40.1849 66.7161 39.9115 66.5339 39.5859 66.3906C39.2604 66.2474 38.9219 66.1497 38.5703 66.0977C38.2318 66.0326 37.9518 66 37.7305 66C37.6003 66 37.3854 66.0391 37.0859 66.1172C36.7995 66.1823 36.4935 66.2734 36.168 66.3906C35.8555 66.4948 35.556 66.625 35.2695 66.7812C34.9961 66.9375 34.8138 67.0938 34.7227 67.25ZM49.6641 72.4648C49.1823 72.2826 48.7201 72.3542 48.2773 72.6797C47.8346 73.0052 47.4115 73.4674 47.0078 74.0664C46.6042 74.6523 46.2201 75.3229 45.8555 76.0781C45.4909 76.8333 45.1523 77.5495 44.8398 78.2266C44.5273 78.9036 44.2409 79.4831 43.9805 79.9648C43.7331 80.4466 43.5052 80.7135 43.2969 80.7656C43.1406 80.7656 43.0169 80.7396 42.9258 80.6875C42.8477 80.6224 42.8086 80.4727 42.8086 80.2383V66.5078C42.8086 66.3906 42.8542 66.319 42.9453 66.293C43.0495 66.2669 43.1602 66.2604 43.2773 66.2734C43.3945 66.2865 43.5052 66.319 43.6094 66.3711C43.7135 66.4102 43.7786 66.4557 43.8047 66.5078L44.0586 77.5039C44.2018 77.2695 44.332 76.944 44.4492 76.5273C44.5794 76.0977 44.7292 75.6419 44.8984 75.1602C45.0677 74.6654 45.263 74.1771 45.4844 73.6953C45.7188 73.2005 46.0052 72.7578 46.3438 72.3672C46.6823 71.9766 47.0924 71.6771 47.5742 71.4688C48.069 71.2474 48.6484 71.1693 49.3125 71.2344C49.7552 71.2344 50.1133 71.3776 50.3867 71.6641C50.6602 71.9375 50.8034 72.3021 50.8164 72.7578L51.0117 80.5508C51.0117 80.6029 50.9987 80.681 50.9727 80.7852C50.9596 80.8763 50.9076 80.9544 50.8164 81.0195C50.7383 81.0977 50.6211 81.1432 50.4648 81.1562C50.3216 81.1823 50.1328 81.1497 49.8984 81.0586L49.6641 72.4648ZM51.9688 78.3242C51.8776 77.7253 51.832 77.1458 51.832 76.5859C51.832 76.013 51.8646 75.4336 51.9297 74.8477C52.0078 74.2617 52.112 73.6562 52.2422 73.0312C52.3854 72.3932 52.5482 71.7096 52.7305 70.9805C52.7305 70.8372 52.7695 70.707 52.8477 70.5898C52.9258 70.4596 53.0299 70.3555 53.1602 70.2773C53.2904 70.1862 53.4271 70.1146 53.5703 70.0625C53.7135 70.0104 53.8503 69.9844 53.9805 69.9844C54.2669 69.9844 54.5273 70.0755 54.7617 70.2578C54.9961 70.4401 55.2044 70.6615 55.3867 70.9219C55.582 71.1823 55.7448 71.4622 55.875 71.7617C56.0182 72.0482 56.1354 72.2956 56.2266 72.5039C56.3307 72.9596 56.4023 73.4805 56.4414 74.0664C56.4935 74.6393 56.5 75.2253 56.4609 75.8242C56.4219 76.4232 56.3307 77.0156 56.1875 77.6016C56.0443 78.1745 55.8424 78.7018 55.582 79.1836C55.3216 79.6654 54.9831 80.069 54.5664 80.3945C54.1628 80.7201 53.681 80.9219 53.1211 81C52.8216 81 52.5938 80.9023 52.4375 80.707C52.2812 80.4987 52.1641 80.2513 52.0859 79.9648C52.0208 79.6654 51.9818 79.3659 51.9688 79.0664C51.9688 78.7669 51.9688 78.5195 51.9688 78.3242ZM52.9648 78.2656C52.9648 78.3958 52.9648 78.5195 52.9648 78.6367C52.9779 78.7539 52.9909 78.8711 53.0039 78.9883C53.0299 79.0924 53.056 79.2096 53.082 79.3398C53.1211 79.457 53.1667 79.5938 53.2188 79.75H53.3359C53.6484 79.75 53.9154 79.6458 54.1367 79.4375C54.3581 79.2292 54.5469 78.9622 54.7031 78.6367C54.8594 78.2982 54.9896 77.9271 55.0938 77.5234C55.1979 77.1068 55.276 76.7031 55.3281 76.3125C55.3932 75.9089 55.4323 75.5378 55.4453 75.1992C55.4714 74.8477 55.4844 74.5677 55.4844 74.3594V73.9688C55.4844 73.7995 55.4779 73.6107 55.4648 73.4023C55.4518 73.181 55.4258 72.9596 55.3867 72.7383C55.3607 72.5039 55.3151 72.2956 55.25 72.1133C55.1849 71.918 55.1003 71.7617 54.9961 71.6445C54.8919 71.5273 54.7552 71.4688 54.5859 71.4688C54.2995 71.3776 54.0521 71.3971 53.8438 71.5273C53.6484 71.6576 53.4857 71.8789 53.3555 72.1914C53.2383 72.4909 53.1471 72.862 53.082 73.3047C53.0169 73.7474 52.9779 74.2357 52.9648 74.7695C52.9518 75.3034 52.9453 75.8698 52.9453 76.4688C52.9583 77.0677 52.9648 77.6667 52.9648 78.2656ZM57.8477 72.6602C57.7174 72.7253 57.5938 72.7969 57.4766 72.875C57.3724 72.9401 57.2682 73.0052 57.1641 73.0703C57.0599 73.1224 56.9557 73.1615 56.8516 73.1875C56.7474 73.2135 56.6367 73.2135 56.5195 73.1875C56.4414 73.1875 56.3763 73.1419 56.3242 73.0508C56.2721 72.9466 56.2331 72.8359 56.207 72.7188C56.168 72.5885 56.1419 72.4648 56.1289 72.3477C56.1159 72.2174 56.1159 72.1198 56.1289 72.0547L58.0039 70.9805L58.1211 65.9805C58.1471 65.8112 58.2513 65.7461 58.4336 65.7852C58.6159 65.8112 58.8047 65.8503 59 65.9023C59.026 65.9023 59.0651 65.9154 59.1172 65.9414C59.1823 65.9544 59.2279 65.9674 59.2539 65.9805C59.2279 66.332 59.1953 66.7161 59.1562 67.1328C59.1302 67.5365 59.1042 67.9466 59.0781 68.3633C59.0521 68.7669 59.0326 69.1641 59.0195 69.5547C59.0195 69.9453 59.0391 70.2969 59.0781 70.6094L62.0078 69.7891C62.0599 69.776 62.099 69.8151 62.125 69.9062C62.1641 69.9844 62.1966 70.082 62.2227 70.1992C62.2617 70.3164 62.2878 70.4336 62.3008 70.5508C62.3138 70.668 62.3203 70.7266 62.3203 70.7266L59 72.1328C59 72.25 59.0065 72.5299 59.0195 72.9727C59.0456 73.4154 59.0716 73.9427 59.0977 74.5547C59.1237 75.1536 59.1497 75.8047 59.1758 76.5078C59.2018 77.1979 59.2279 77.8424 59.2539 78.4414C59.2799 79.0404 59.2995 79.5677 59.3125 80.0234C59.3255 80.4661 59.332 80.7461 59.332 80.8633C59.306 81.2539 59.1888 81.4492 58.9805 81.4492C58.7852 81.4492 58.5703 81.3516 58.3359 81.1562L57.8477 72.6602ZM62.6719 78.3242C62.5807 77.7253 62.5352 77.1458 62.5352 76.5859C62.5352 76.013 62.5677 75.4336 62.6328 74.8477C62.7109 74.2617 62.8151 73.6562 62.9453 73.0312C63.0885 72.3932 63.2513 71.7096 63.4336 70.9805C63.4336 70.8372 63.4727 70.707 63.5508 70.5898C63.6289 70.4596 63.7331 70.3555 63.8633 70.2773C63.9935 70.1862 64.1302 70.1146 64.2734 70.0625C64.4167 70.0104 64.5534 69.9844 64.6836 69.9844C64.9701 69.9844 65.2305 70.0755 65.4648 70.2578C65.6992 70.4401 65.9076 70.6615 66.0898 70.9219C66.2852 71.1823 66.4479 71.4622 66.5781 71.7617C66.7214 72.0482 66.8385 72.2956 66.9297 72.5039C67.0339 72.9596 67.1055 73.4805 67.1445 74.0664C67.1966 74.6393 67.2031 75.2253 67.1641 75.8242C67.125 76.4232 67.0339 77.0156 66.8906 77.6016C66.7474 78.1745 66.5456 78.7018 66.2852 79.1836C66.0247 79.6654 65.6862 80.069 65.2695 80.3945C64.8659 80.7201 64.3841 80.9219 63.8242 81C63.5247 81 63.2969 80.9023 63.1406 80.707C62.9844 80.4987 62.8672 80.2513 62.7891 79.9648C62.724 79.6654 62.6849 79.3659 62.6719 79.0664C62.6719 78.7669 62.6719 78.5195 62.6719 78.3242ZM63.668 78.2656C63.668 78.3958 63.668 78.5195 63.668 78.6367C63.681 78.7539 63.694 78.8711 63.707 78.9883C63.7331 79.0924 63.7591 79.2096 63.7852 79.3398C63.8242 79.457 63.8698 79.5938 63.9219 79.75H64.0391C64.3516 79.75 64.6185 79.6458 64.8398 79.4375C65.0612 79.2292 65.25 78.9622 65.4062 78.6367C65.5625 78.2982 65.6927 77.9271 65.7969 77.5234C65.901 77.1068 65.9792 76.7031 66.0312 76.3125C66.0964 75.9089 66.1354 75.5378 66.1484 75.1992C66.1745 74.8477 66.1875 74.5677 66.1875 74.3594V73.9688C66.1875 73.7995 66.181 73.6107 66.168 73.4023C66.1549 73.181 66.1289 72.9596 66.0898 72.7383C66.0638 72.5039 66.0182 72.2956 65.9531 72.1133C65.888 71.918 65.8034 71.7617 65.6992 71.6445C65.5951 71.5273 65.4583 71.4688 65.2891 71.4688C65.0026 71.3776 64.7552 71.3971 64.5469 71.5273C64.3516 71.6576 64.1888 71.8789 64.0586 72.1914C63.9414 72.4909 63.8503 72.862 63.7852 73.3047C63.7201 73.7474 63.681 74.2357 63.668 74.7695C63.6549 75.3034 63.6484 75.8698 63.6484 76.4688C63.6615 77.0677 63.668 77.6667 63.668 78.2656ZM69.3711 88.6367C70.5169 88.5716 71.4154 88.2721 72.0664 87.7383C72.7305 87.2044 73.2253 86.5143 73.5508 85.668C73.8763 84.8216 74.0716 83.8516 74.1367 82.7578C74.2018 81.6771 74.2083 80.5573 74.1562 79.3984C74.1042 78.2396 74.026 77.0807 73.9219 75.9219C73.8307 74.75 73.7917 73.6628 73.8047 72.6602C73.2448 74.3008 72.7174 75.6289 72.2227 76.6445C71.7279 77.6471 71.2656 78.4089 70.8359 78.9297C70.4193 79.4375 70.0352 79.75 69.6836 79.8672C69.3451 79.9714 69.0456 79.9518 68.7852 79.8086C68.5247 79.6523 68.3099 79.4115 68.1406 79.0859C67.9844 78.7474 67.8737 78.4023 67.8086 78.0508C67.8346 77.4518 67.9518 76.7943 68.1602 76.0781C68.3815 75.349 68.6615 74.6393 69 73.9492C69.3516 73.2461 69.7552 72.5951 70.2109 71.9961C70.6667 71.3841 71.1484 70.9089 71.6562 70.5703C72.1641 70.2188 72.6914 70.0365 73.2383 70.0234C73.7852 69.9974 74.3125 70.2057 74.8203 70.6484C74.8333 70.6615 74.8529 70.8372 74.8789 71.1758C74.918 71.5013 74.957 71.9375 74.9961 72.4844C75.0482 73.0182 75.1003 73.6237 75.1523 74.3008C75.2174 74.9648 75.276 75.6419 75.3281 76.332C75.3802 77.0091 75.4258 77.6602 75.4648 78.2852C75.5039 78.9102 75.543 79.4505 75.582 79.9062C75.6341 80.6484 75.6016 81.4362 75.4844 82.2695C75.3802 83.1029 75.2109 83.9102 74.9766 84.6914C74.7422 85.4857 74.4427 86.2279 74.0781 86.918C73.7266 87.6081 73.3164 88.1745 72.8477 88.6172C72.3919 89.0599 71.8776 89.3398 71.3047 89.457C70.7448 89.5872 70.1458 89.4896 69.5078 89.1641C69.4688 89.1641 69.4102 89.1576 69.332 89.1445C69.2539 89.1445 69.1888 89.125 69.1367 89.0859C69.0977 89.0469 69.0911 88.9948 69.1172 88.9297C69.1432 88.8646 69.2279 88.7669 69.3711 88.6367ZM68.8242 77.9141C68.9544 78.3177 69.1237 78.526 69.332 78.5391C69.5534 78.5391 69.7878 78.4023 70.0352 78.1289C70.2826 77.8424 70.5495 77.4453 70.8359 76.9375C71.1354 76.4297 71.4284 75.8763 71.7148 75.2773C72.0013 74.6784 72.2812 74.0664 72.5547 73.4414C72.8411 72.8034 73.1081 72.2109 73.3555 71.6641C73.3555 71.5208 73.3229 71.3906 73.2578 71.2734C73.1927 71.1432 73.0495 71.1042 72.8281 71.1562C72.4635 71.2344 72.1055 71.4102 71.7539 71.6836C71.4154 71.957 71.0964 72.2956 70.7969 72.6992C70.5104 73.0898 70.2435 73.526 69.9961 74.0078C69.7617 74.4766 69.5534 74.9518 69.3711 75.4336C69.2018 75.9023 69.0651 76.3516 68.9609 76.7812C68.8698 77.2109 68.8242 77.5885 68.8242 77.9141ZM76.7734 71.5859V71.4297C76.7734 71.2995 76.819 71.2083 76.9102 71.1562C77.0143 71.1042 77.1315 71.0781 77.2617 71.0781C77.3659 71.0781 77.4635 71.0911 77.5547 71.1172C77.6458 71.1302 77.7174 71.2018 77.7695 71.332C77.8086 71.5273 77.8477 71.8008 77.8867 72.1523C77.9258 72.4909 77.9714 72.8685 78.0234 73.2852C78.0755 73.7018 78.1276 74.1445 78.1797 74.6133C78.2448 75.069 78.3034 75.5052 78.3555 75.9219C78.4206 76.3255 78.4857 76.6901 78.5508 77.0156C78.6159 77.3411 78.6875 77.5885 78.7656 77.7578C78.7266 76.5078 78.7656 75.4271 78.8828 74.5156C79 73.5911 79.2214 72.8424 79.5469 72.2695C79.8854 71.6836 80.3411 71.2799 80.9141 71.0586C81.5 70.8242 82.2292 70.7721 83.1016 70.9023C83.5052 70.9023 83.707 71.1172 83.707 71.5469C83.707 71.7161 83.5964 71.8333 83.375 71.8984C83.1536 71.9505 82.9062 71.9896 82.6328 72.0156C82.3594 72.0286 82.0924 72.0482 81.832 72.0742C81.5716 72.1003 81.3828 72.1654 81.2656 72.2695C80.7969 72.5299 80.4648 72.9336 80.2695 73.4805C80.0872 74.0273 79.957 74.6719 79.8789 75.4141C79.8008 76.1562 79.7422 76.9701 79.7031 77.8555C79.6771 78.7279 79.5924 79.6263 79.4492 80.5508C79.4492 80.681 79.3971 80.7786 79.293 80.8438C79.1888 80.9089 79.0586 80.9414 78.9023 80.9414C78.7591 80.9414 78.6159 80.9089 78.4727 80.8438C78.3424 80.7786 78.2383 80.681 78.1602 80.5508L76.7734 71.5859ZM90.25 80.4922C90.1849 80.1536 90.1263 79.75 90.0742 79.2812C90.0352 78.7995 89.9896 78.3177 89.9375 77.8359C89.8854 77.3411 89.8203 76.8789 89.7422 76.4492C89.6771 76.0195 89.5729 75.668 89.4297 75.3945C88.7656 76.7487 88.1797 77.8164 87.6719 78.5977C87.1641 79.3659 86.7148 79.9193 86.3242 80.2578C85.9466 80.5833 85.6276 80.7396 85.3672 80.7266C85.1068 80.7135 84.8919 80.5964 84.7227 80.375C84.5534 80.1536 84.4297 79.8737 84.3516 79.5352C84.2865 79.1836 84.2409 78.8581 84.2148 78.5586C84.2148 78.2721 84.2799 77.8685 84.4102 77.3477C84.5404 76.8268 84.7161 76.2604 84.9375 75.6484C85.1589 75.0234 85.4193 74.3919 85.7188 73.7539C86.0312 73.1159 86.3633 72.5365 86.7148 72.0156C87.0664 71.4948 87.431 71.0651 87.8086 70.7266C88.1862 70.388 88.5638 70.2188 88.9414 70.2188C89.5013 70.1276 89.9115 70.2513 90.1719 70.5898C90.4453 70.9154 90.4974 71.4688 90.3281 72.25C90.3281 73.1094 90.3607 73.8451 90.4258 74.457C90.5039 75.069 90.582 75.6549 90.6602 76.2148C90.7513 76.7747 90.8294 77.3607 90.8945 77.9727C90.9727 78.5846 91.0117 79.3203 91.0117 80.1797C91.0117 80.3359 90.9922 80.4727 90.9531 80.5898C90.9271 80.694 90.7708 80.7461 90.4844 80.7461C90.4453 80.7461 90.3932 80.7135 90.3281 80.6484C90.276 80.5833 90.25 80.5312 90.25 80.4922ZM89.1953 71.7617C89.0521 71.5534 88.8568 71.5339 88.6094 71.7031C88.362 71.8724 88.1016 72.1523 87.8281 72.543C87.5547 72.9336 87.2747 73.4023 86.9883 73.9492C86.7018 74.4961 86.4349 75.0495 86.1875 75.6094C85.9401 76.1693 85.7253 76.7031 85.543 77.2109C85.3607 77.7057 85.237 78.1159 85.1719 78.4414C85.1719 78.9102 85.2435 79.1771 85.3867 79.2422C85.5299 79.2943 85.7057 79.2161 85.9141 79.0078C86.1224 78.7995 86.3568 78.5 86.6172 78.1094C86.8906 77.7188 87.151 77.3021 87.3984 76.8594C87.6589 76.4167 87.8997 75.987 88.1211 75.5703C88.3555 75.1536 88.5378 74.8151 88.668 74.5547C88.7852 74.2812 88.8763 74.0273 88.9414 73.793C89.0065 73.5586 89.0586 73.3372 89.0977 73.1289C89.1497 72.9076 89.1758 72.6862 89.1758 72.4648C89.1888 72.2435 89.1953 72.0091 89.1953 71.7617ZM92.0859 86.1367C92.2292 84.7695 92.3073 83.4674 92.3203 82.2305C92.3464 81.0065 92.3398 79.7956 92.3008 78.5977C92.2747 77.3997 92.2292 76.1888 92.1641 74.9648C92.099 73.7409 92.0599 72.4453 92.0469 71.0781C92.0859 70.8958 92.1315 70.7591 92.1836 70.668C92.2487 70.5638 92.4115 70.5378 92.6719 70.5898C92.9453 70.6549 93.1081 70.8112 93.1602 71.0586C93.2122 71.293 93.2253 71.5599 93.1992 71.8594C93.1732 72.1589 93.1341 72.4583 93.082 72.7578C93.0299 73.0573 93.0299 73.2982 93.082 73.4805C93.4987 73.181 93.9414 72.8685 94.4102 72.543C94.8789 72.2174 95.3672 71.931 95.875 71.6836C96.3828 71.4232 96.9102 71.2344 97.457 71.1172C98.0039 70.987 98.5508 70.9805 99.0977 71.0977C99.7747 71.2539 100.243 71.4883 100.504 71.8008C100.777 72.1003 100.882 72.4518 100.816 72.8555C100.764 73.2461 100.582 73.6823 100.27 74.1641C99.957 74.6328 99.5729 75.1081 99.1172 75.5898C98.6615 76.0716 98.1536 76.5469 97.5938 77.0156C97.0339 77.4844 96.487 77.9206 95.9531 78.3242C95.4193 78.7148 94.918 79.0599 94.4492 79.3594C93.9935 79.6589 93.6289 79.8802 93.3555 80.0234C93.3424 80.1797 93.3229 80.4271 93.2969 80.7656C93.2839 81.0911 93.2643 81.4622 93.2383 81.8789C93.2253 82.2956 93.2057 82.7318 93.1797 83.1875C93.1667 83.6432 93.1471 84.0794 93.1211 84.4961C93.1081 84.9128 93.0885 85.2839 93.0625 85.6094C93.0495 85.9349 93.043 86.1758 93.043 86.332C93.0169 86.3451 92.9714 86.3581 92.9062 86.3711C92.8411 86.3841 92.763 86.3906 92.6719 86.3906C92.5807 86.4036 92.4961 86.4102 92.418 86.4102C92.3398 86.4232 92.2878 86.4232 92.2617 86.4102C92.2227 86.4102 92.1836 86.3711 92.1445 86.293C92.1055 86.2279 92.0859 86.1758 92.0859 86.1367ZM93.1797 75.4336C93.1406 75.6159 93.1276 75.8438 93.1406 76.1172C93.1667 76.3776 93.1927 76.6576 93.2188 76.957C93.2578 77.2435 93.2969 77.5234 93.3359 77.7969C93.375 78.0703 93.401 78.3047 93.4141 78.5C93.9089 78.1224 94.4818 77.7383 95.1328 77.3477C95.7969 76.957 96.4349 76.5339 97.0469 76.0781C97.6719 75.6224 98.2253 75.1146 98.707 74.5547C99.1888 73.9948 99.5078 73.3633 99.6641 72.6602C99.7161 72.3867 99.6901 72.2044 99.5859 72.1133C99.4948 72.0091 99.332 71.9375 99.0977 71.8984C98.6029 71.7943 98.0365 71.8333 97.3984 72.0156C96.7604 72.1849 96.1419 72.4388 95.543 72.7773C94.957 73.1159 94.4427 73.5195 94 73.9883C93.5573 74.457 93.2839 74.9388 93.1797 75.4336ZM108.688 72.4648C108.206 72.2826 107.743 72.3542 107.301 72.6797C106.858 73.0052 106.435 73.4674 106.031 74.0664C105.628 74.6523 105.243 75.3229 104.879 76.0781C104.514 76.8333 104.176 77.5495 103.863 78.2266C103.551 78.9036 103.264 79.4831 103.004 79.9648C102.757 80.4466 102.529 80.7135 102.32 80.7656C102.164 80.7656 102.04 80.7396 101.949 80.6875C101.871 80.6224 101.832 80.4727 101.832 80.2383V66.5078C101.832 66.3906 101.878 66.319 101.969 66.293C102.073 66.2669 102.184 66.2604 102.301 66.2734C102.418 66.2865 102.529 66.319 102.633 66.3711C102.737 66.4102 102.802 66.4557 102.828 66.5078L103.082 77.5039C103.225 77.2695 103.355 76.944 103.473 76.5273C103.603 76.0977 103.753 75.6419 103.922 75.1602C104.091 74.6654 104.286 74.1771 104.508 73.6953C104.742 73.2005 105.029 72.7578 105.367 72.3672C105.706 71.9766 106.116 71.6771 106.598 71.4688C107.092 71.2474 107.672 71.1693 108.336 71.2344C108.779 71.2344 109.137 71.3776 109.41 71.6641C109.684 71.9375 109.827 72.3021 109.84 72.7578L110.035 80.5508C110.035 80.6029 110.022 80.681 109.996 80.7852C109.983 80.8763 109.931 80.9544 109.84 81.0195C109.762 81.0977 109.645 81.1432 109.488 81.1562C109.345 81.1823 109.156 81.1497 108.922 81.0586L108.688 72.4648ZM116.031 80.9219L110.992 72.8555C110.979 72.8424 110.966 72.7969 110.953 72.7188C110.94 72.6276 110.934 72.556 110.934 72.5039C110.934 72.3346 110.96 72.1914 111.012 72.0742C111.077 71.944 111.233 71.8789 111.48 71.8789C111.533 71.8789 111.624 71.9115 111.754 71.9766C111.884 72.0286 111.962 72.0807 111.988 72.1328C112.275 72.5885 112.568 73.0964 112.867 73.6562C113.18 74.2161 113.499 74.776 113.824 75.3359C114.163 75.8958 114.514 76.4362 114.879 76.957C115.243 77.4648 115.628 77.901 116.031 78.2656L116.5 70.6094C116.513 70.6094 116.546 70.6094 116.598 70.6094C116.663 70.5964 116.708 70.5898 116.734 70.5898C116.852 70.5898 116.969 70.6094 117.086 70.6484C117.203 70.6745 117.288 70.7591 117.34 70.9023C117.353 71.3711 117.353 71.9505 117.34 72.6406C117.34 73.3307 117.327 74.0404 117.301 74.7695C117.288 75.4987 117.268 76.2018 117.242 76.8789C117.229 77.543 117.216 78.0768 117.203 78.4805C117.19 78.7409 117.164 79.1315 117.125 79.6523C117.099 80.1732 117.06 80.7591 117.008 81.4102C116.969 82.0742 116.917 82.7708 116.852 83.5C116.799 84.2292 116.747 84.9193 116.695 85.5703C116.643 86.2214 116.598 86.8073 116.559 87.3281C116.52 87.862 116.487 88.2461 116.461 88.4805H115.445L116.031 80.9219ZM120.133 80.082C120.159 79.9518 120.322 79.8281 120.621 79.7109C120.921 79.5938 121.292 79.4701 121.734 79.3398C122.177 79.2096 122.665 79.0664 123.199 78.9102C123.733 78.7539 124.247 78.5781 124.742 78.3828C125.237 78.1875 125.686 77.9661 126.09 77.7188C126.507 77.4714 126.812 77.1849 127.008 76.8594C127.008 76.6641 126.878 76.5143 126.617 76.4102C126.37 76.306 126.031 76.2214 125.602 76.1562C125.185 76.0781 124.703 76.0195 124.156 75.9805C123.622 75.9284 123.069 75.8633 122.496 75.7852C121.936 75.694 121.383 75.5898 120.836 75.4727C120.302 75.3424 119.82 75.1667 119.391 74.9453C118.974 74.7109 118.635 74.418 118.375 74.0664C118.128 73.7148 118.004 73.2852 118.004 72.7773C118.004 72.2695 118.115 71.7682 118.336 71.2734C118.557 70.7656 118.85 70.2773 119.215 69.8086C119.592 69.3398 120.016 68.9036 120.484 68.5C120.966 68.0964 121.467 67.7448 121.988 67.4453C122.509 67.1458 123.023 66.9115 123.531 66.7422C124.052 66.5729 124.534 66.4883 124.977 66.4883C125.094 66.4883 125.217 66.4883 125.348 66.4883C125.478 66.4753 125.589 66.4818 125.68 66.5078C125.784 66.5208 125.868 66.5664 125.934 66.6445C125.999 66.7227 126.031 66.8398 126.031 66.9961C126.031 67.3737 125.908 67.6471 125.66 67.8164C125.413 67.9727 125.113 68.0508 124.762 68.0508L124 67.5039C123.701 67.5039 123.368 67.5885 123.004 67.7578C122.652 67.9271 122.288 68.1549 121.91 68.4414C121.546 68.7148 121.188 69.0339 120.836 69.3984C120.484 69.763 120.172 70.1406 119.898 70.5312C119.638 70.9219 119.423 71.3125 119.254 71.7031C119.098 72.0938 119.02 72.4453 119.02 72.7578C119.02 73.2135 119.143 73.5846 119.391 73.8711C119.651 74.1445 119.99 74.3659 120.406 74.5352C120.836 74.6914 121.324 74.8086 121.871 74.8867C122.418 74.9648 122.971 75.0299 123.531 75.082C124.091 75.1341 124.645 75.1862 125.191 75.2383C125.738 75.2773 126.22 75.3555 126.637 75.4727C127.066 75.5898 127.405 75.7461 127.652 75.9414C127.913 76.1367 128.043 76.4036 128.043 76.7422C128.186 76.9505 128.154 77.1914 127.945 77.4648C127.75 77.7253 127.438 77.9922 127.008 78.2656C126.591 78.526 126.09 78.793 125.504 79.0664C124.931 79.3268 124.339 79.5677 123.727 79.7891C123.115 79.9974 122.522 80.1797 121.949 80.3359C121.376 80.4792 120.888 80.5703 120.484 80.6094C120.367 80.6094 120.263 80.5703 120.172 80.4922C120.094 80.4141 120.081 80.2773 120.133 80.082ZM129.625 72.6602C129.495 72.7253 129.371 72.7969 129.254 72.875C129.15 72.9401 129.046 73.0052 128.941 73.0703C128.837 73.1224 128.733 73.1615 128.629 73.1875C128.525 73.2135 128.414 73.2135 128.297 73.1875C128.219 73.1875 128.154 73.1419 128.102 73.0508C128.049 72.9466 128.01 72.8359 127.984 72.7188C127.945 72.5885 127.919 72.4648 127.906 72.3477C127.893 72.2174 127.893 72.1198 127.906 72.0547L129.781 70.9805L129.898 65.9805C129.924 65.8112 130.029 65.7461 130.211 65.7852C130.393 65.8112 130.582 65.8503 130.777 65.9023C130.803 65.9023 130.842 65.9154 130.895 65.9414C130.96 65.9544 131.005 65.9674 131.031 65.9805C131.005 66.332 130.973 66.7161 130.934 67.1328C130.908 67.5365 130.882 67.9466 130.855 68.3633C130.829 68.7669 130.81 69.1641 130.797 69.5547C130.797 69.9453 130.816 70.2969 130.855 70.6094L133.785 69.7891C133.837 69.776 133.876 69.8151 133.902 69.9062C133.941 69.9844 133.974 70.082 134 70.1992C134.039 70.3164 134.065 70.4336 134.078 70.5508C134.091 70.668 134.098 70.7266 134.098 70.7266L130.777 72.1328C130.777 72.25 130.784 72.5299 130.797 72.9727C130.823 73.4154 130.849 73.9427 130.875 74.5547C130.901 75.1536 130.927 75.8047 130.953 76.5078C130.979 77.1979 131.005 77.8424 131.031 78.4414C131.057 79.0404 131.077 79.5677 131.09 80.0234C131.103 80.4661 131.109 80.7461 131.109 80.8633C131.083 81.2539 130.966 81.4492 130.758 81.4492C130.562 81.4492 130.348 81.3516 130.113 81.1562L129.625 72.6602ZM139.43 78.7344C139.378 78.8906 139.247 79.1055 139.039 79.3789C138.844 79.6393 138.609 79.9062 138.336 80.1797C138.062 80.4401 137.776 80.6745 137.477 80.8828C137.19 81.0781 136.936 81.1758 136.715 81.1758C136.298 81.1758 135.953 80.9805 135.68 80.5898C135.419 80.1992 135.217 79.6979 135.074 79.0859C134.931 78.474 134.833 77.7969 134.781 77.0547C134.729 76.2995 134.697 75.5638 134.684 74.8477C134.671 74.1315 134.664 73.4805 134.664 72.8945C134.664 72.3086 134.645 71.8659 134.605 71.5664C134.658 71.4362 134.723 71.3581 134.801 71.332C134.892 71.306 134.996 71.293 135.113 71.293C135.217 71.293 135.309 71.306 135.387 71.332C135.478 71.3581 135.556 71.4362 135.621 71.5664C135.621 71.7096 135.621 71.9505 135.621 72.2891C135.634 72.6276 135.654 73.0117 135.68 73.4414C135.706 73.8581 135.732 74.3008 135.758 74.7695C135.784 75.2253 135.803 75.6615 135.816 76.0781C135.842 76.4948 135.862 76.8724 135.875 77.2109C135.901 77.5365 135.921 77.7773 135.934 77.9336C135.947 78.0247 135.96 78.1745 135.973 78.3828C135.999 78.5911 136.031 78.8125 136.07 79.0469C136.122 79.2682 136.181 79.4701 136.246 79.6523C136.324 79.8346 136.422 79.9323 136.539 79.9453C136.734 79.9453 136.93 79.8607 137.125 79.6914C137.333 79.5221 137.535 79.3073 137.73 79.0469C137.926 78.7865 138.108 78.5 138.277 78.1875C138.447 77.875 138.596 77.5755 138.727 77.2891C138.87 76.9896 138.974 76.7227 139.039 76.4883C139.117 76.2539 139.163 76.0846 139.176 75.9805C139.202 75.7591 139.228 75.4466 139.254 75.043C139.28 74.6263 139.299 74.1836 139.312 73.7148C139.326 73.2461 139.332 72.8034 139.332 72.3867C139.345 71.9701 139.352 71.651 139.352 71.4297L140.426 71.4883C140.439 72.543 140.432 73.5 140.406 74.3594C140.38 75.2057 140.374 76.0065 140.387 76.7617C140.4 77.5039 140.458 78.2266 140.562 78.9297C140.667 79.6328 140.855 80.362 141.129 81.1172C141.09 81.1562 141.012 81.2083 140.895 81.2734C140.777 81.3516 140.693 81.3906 140.641 81.3906C140.315 81.3906 140.094 81.2799 139.977 81.0586C139.872 80.8503 139.801 80.6029 139.762 80.3164C139.736 80.0169 139.71 79.724 139.684 79.4375C139.671 79.138 139.586 78.9036 139.43 78.7344ZM146.5 77.4258C146.37 77.7253 146.201 78.0703 145.992 78.4609C145.797 78.8516 145.562 79.2227 145.289 79.5742C145.029 79.9258 144.723 80.2253 144.371 80.4727C144.02 80.7201 143.629 80.8438 143.199 80.8438C143.004 80.8438 142.848 80.8242 142.73 80.7852C142.626 80.7331 142.529 80.6615 142.438 80.5703C142.359 80.4792 142.281 80.3685 142.203 80.2383C142.138 80.1081 142.053 79.9648 141.949 79.8086C141.91 79.1706 141.884 78.487 141.871 77.7578C141.871 77.0156 141.91 76.2799 141.988 75.5508C142.066 74.8086 142.197 74.112 142.379 73.4609C142.574 72.8099 142.841 72.2565 143.18 71.8008C143.531 71.3451 143.967 71.0195 144.488 70.8242C145.009 70.6289 145.641 70.6159 146.383 70.7852C146.422 70.4206 146.428 69.9323 146.402 69.3203C146.376 68.7083 146.337 68.0638 146.285 67.3867C146.233 66.7096 146.181 66.0586 146.129 65.4336C146.077 64.7956 146.044 64.2747 146.031 63.8711C146.031 63.7539 146.083 63.6693 146.188 63.6172C146.305 63.5521 146.428 63.513 146.559 63.5C146.689 63.487 146.812 63.487 146.93 63.5C147.06 63.513 147.145 63.5326 147.184 63.5586C147.158 65.1602 147.151 66.7357 147.164 68.2852C147.177 69.8216 147.19 71.3581 147.203 72.8945C147.229 74.418 147.255 75.9349 147.281 77.4453C147.307 78.9557 147.32 80.4661 147.32 81.9766C147.32 82.1198 147.307 82.2695 147.281 82.4258C147.268 82.5951 147.158 82.6797 146.949 82.6797C146.871 82.6797 146.793 82.6536 146.715 82.6016C146.637 82.5625 146.585 82.4974 146.559 82.4062L146.5 77.4258ZM145.66 71.7617C145.257 71.7357 144.879 71.8984 144.527 72.25C144.189 72.5885 143.889 73.0312 143.629 73.5781C143.382 74.125 143.18 74.7305 143.023 75.3945C142.867 76.0456 142.77 76.6771 142.73 77.2891C142.704 77.888 142.743 78.4219 142.848 78.8906C142.965 79.3594 143.167 79.6784 143.453 79.8477C143.74 79.8477 144.007 79.737 144.254 79.5156C144.501 79.2812 144.729 78.9883 144.938 78.6367C145.146 78.2852 145.328 77.8945 145.484 77.4648C145.641 77.0221 145.771 76.599 145.875 76.1953C145.992 75.7917 146.077 75.4271 146.129 75.1016C146.194 74.763 146.227 74.5091 146.227 74.3398C146.227 74.2096 146.233 74.0013 146.246 73.7148C146.259 73.4284 146.253 73.1419 146.227 72.8555C146.201 72.569 146.142 72.3151 146.051 72.0938C145.973 71.8724 145.842 71.7617 145.66 71.7617ZM148.863 80.6094C148.863 79.763 148.844 78.8711 148.805 77.9336C148.779 76.9961 148.746 76.0521 148.707 75.1016C148.681 74.138 148.674 73.194 148.688 72.2695C148.701 71.3451 148.759 70.4792 148.863 69.6719C148.889 69.6589 148.948 69.6523 149.039 69.6523C149.143 69.6393 149.215 69.6328 149.254 69.6328C149.436 69.6328 149.579 69.6654 149.684 69.7305C149.801 69.7826 149.859 69.9062 149.859 70.1016C149.859 70.8698 149.853 71.7096 149.84 72.6211C149.84 73.5195 149.833 74.4375 149.82 75.375C149.82 76.2995 149.82 77.2174 149.82 78.1289C149.82 79.0404 149.833 79.8672 149.859 80.6094C149.872 80.8307 149.827 80.974 149.723 81.0391C149.632 81.1172 149.514 81.1562 149.371 81.1562C149.215 81.1562 149.085 81.1172 148.98 81.0391C148.876 80.974 148.837 80.8307 148.863 80.6094ZM148.434 66.625C148.434 66.4688 148.486 66.3646 148.59 66.3125C148.694 66.2604 148.811 66.2344 148.941 66.2344C149.202 66.2344 149.365 66.319 149.43 66.4883C149.495 66.6576 149.527 66.8529 149.527 67.0742C149.449 67.2174 149.352 67.3216 149.234 67.3867C149.117 67.4388 148.993 67.4518 148.863 67.4258C148.746 67.3867 148.642 67.3021 148.551 67.1719C148.473 67.0417 148.434 66.8594 148.434 66.625ZM151.188 78.3242C151.096 77.7253 151.051 77.1458 151.051 76.5859C151.051 76.013 151.083 75.4336 151.148 74.8477C151.227 74.2617 151.331 73.6562 151.461 73.0312C151.604 72.3932 151.767 71.7096 151.949 70.9805C151.949 70.8372 151.988 70.707 152.066 70.5898C152.145 70.4596 152.249 70.3555 152.379 70.2773C152.509 70.1862 152.646 70.1146 152.789 70.0625C152.932 70.0104 153.069 69.9844 153.199 69.9844C153.486 69.9844 153.746 70.0755 153.98 70.2578C154.215 70.4401 154.423 70.6615 154.605 70.9219C154.801 71.1823 154.964 71.4622 155.094 71.7617C155.237 72.0482 155.354 72.2956 155.445 72.5039C155.549 72.9596 155.621 73.4805 155.66 74.0664C155.712 74.6393 155.719 75.2253 155.68 75.8242C155.641 76.4232 155.549 77.0156 155.406 77.6016C155.263 78.1745 155.061 78.7018 154.801 79.1836C154.54 79.6654 154.202 80.069 153.785 80.3945C153.382 80.7201 152.9 80.9219 152.34 81C152.04 81 151.812 80.9023 151.656 80.707C151.5 80.4987 151.383 80.2513 151.305 79.9648C151.24 79.6654 151.201 79.3659 151.188 79.0664C151.188 78.7669 151.188 78.5195 151.188 78.3242ZM152.184 78.2656C152.184 78.3958 152.184 78.5195 152.184 78.6367C152.197 78.7539 152.21 78.8711 152.223 78.9883C152.249 79.0924 152.275 79.2096 152.301 79.3398C152.34 79.457 152.385 79.5938 152.438 79.75H152.555C152.867 79.75 153.134 79.6458 153.355 79.4375C153.577 79.2292 153.766 78.9622 153.922 78.6367C154.078 78.2982 154.208 77.9271 154.312 77.5234C154.417 77.1068 154.495 76.7031 154.547 76.3125C154.612 75.9089 154.651 75.5378 154.664 75.1992C154.69 74.8477 154.703 74.5677 154.703 74.3594V73.9688C154.703 73.7995 154.697 73.6107 154.684 73.4023C154.671 73.181 154.645 72.9596 154.605 72.7383C154.579 72.5039 154.534 72.2956 154.469 72.1133C154.404 71.918 154.319 71.7617 154.215 71.6445C154.111 71.5273 153.974 71.4688 153.805 71.4688C153.518 71.3776 153.271 71.3971 153.062 71.5273C152.867 71.6576 152.704 71.8789 152.574 72.1914C152.457 72.4909 152.366 72.862 152.301 73.3047C152.236 73.7474 152.197 74.2357 152.184 74.7695C152.171 75.3034 152.164 75.8698 152.164 76.4688C152.177 77.0677 152.184 77.6667 152.184 78.2656ZM89.0547 92.793C88.9922 92.6758 88.9492 92.5742 88.9258 92.4883C88.9023 92.4023 88.8906 92.3008 88.8906 92.1836C88.8906 92.1445 88.8906 92.1055 88.8906 92.0664C88.8984 92.0273 88.9102 91.9922 88.9258 91.9609C88.9492 91.9297 88.9805 91.9062 89.0195 91.8906C89.0664 91.875 89.125 91.8789 89.1953 91.9023C89.2422 91.918 89.2891 91.9492 89.3359 91.9961C89.3828 92.0352 89.4258 92.0898 89.4648 92.1602C89.5117 92.2227 89.5469 92.2852 89.5703 92.3477C89.6016 92.4102 89.625 92.4609 89.6406 92.5C89.8203 92.3594 90.0156 92.2188 90.2266 92.0781C90.4375 91.9297 90.6602 91.8008 90.8945 91.6914C91.1367 91.5742 91.3789 91.4805 91.6211 91.4102C91.8711 91.3398 92.1094 91.3047 92.3359 91.3047C92.4141 91.3047 92.5078 91.3125 92.6172 91.3281C92.7266 91.3438 92.8281 91.3711 92.9219 91.4102C93.0234 91.4492 93.1055 91.5039 93.168 91.5742C93.2383 91.6367 93.2734 91.7188 93.2734 91.8203C93.2969 92.0078 93.2734 92.1992 93.2031 92.3945C93.1406 92.582 93.0508 92.7656 92.9336 92.9453C92.8242 93.125 92.6953 93.3008 92.5469 93.4727C92.4062 93.6445 92.2617 93.8086 92.1133 93.9648C91.9727 94.1211 91.8398 94.2656 91.7148 94.3984C91.5977 94.5312 91.5078 94.6484 91.4453 94.75C91.7656 94.5391 92.1094 94.3867 92.4766 94.293C92.8516 94.1914 93.2266 94.1406 93.6016 94.1406C93.7188 94.1406 93.8438 94.1484 93.9766 94.1641C94.1172 94.1719 94.2461 94.1992 94.3633 94.2461C94.4805 94.293 94.5781 94.3594 94.6562 94.4453C94.7344 94.5312 94.7734 94.6523 94.7734 94.8086C94.7734 94.9648 94.6992 95.1836 94.5508 95.4648C94.4102 95.7383 94.2227 96.043 93.9883 96.3789C93.7617 96.707 93.5078 97.043 93.2266 97.3867C92.9531 97.7227 92.6875 98.0312 92.4297 98.3125C92.1719 98.5859 91.9375 98.8125 91.7266 98.9922C91.5234 99.1641 91.3789 99.25 91.293 99.25L90.9883 99.1094C91.0273 98.9609 91.125 98.7852 91.2812 98.582C91.4375 98.3789 91.6211 98.168 91.832 97.9492C92.0508 97.7305 92.2812 97.5 92.5234 97.2578C92.7734 97.0156 93.0078 96.7812 93.2266 96.5547C93.4453 96.3281 93.6367 96.1094 93.8008 95.8984C93.9648 95.6797 94.0703 95.4844 94.1172 95.3125C94.1719 95.1328 94.1523 94.9844 94.0586 94.8672C93.9648 94.7422 93.7734 94.6484 93.4844 94.5859C93.1797 94.5859 92.8594 94.6406 92.5234 94.75C92.1875 94.8516 91.8672 95 91.5625 95.1953C91.2578 95.3906 90.9844 95.625 90.7422 95.8984C90.5078 96.1641 90.3359 96.4648 90.2266 96.8008C90.2266 97.0195 90.2422 97.2344 90.2734 97.4453C90.3125 97.6562 90.3516 97.8672 90.3906 98.0781C90.4297 98.2812 90.4648 98.4883 90.4961 98.6992C90.5352 98.9102 90.5547 99.1211 90.5547 99.332C90.5547 99.4883 90.543 99.6172 90.5195 99.7188C90.4961 99.8203 90.3984 99.8711 90.2266 99.8711C90.2109 99.8711 90.1836 99.8711 90.1445 99.8711C90.1133 99.8633 90.0977 99.8555 90.0977 99.8477L89.0547 92.793ZM89.8047 93.5312C89.8047 93.8203 89.8242 94.1289 89.8633 94.457C89.9023 94.7773 89.9805 95.0742 90.0977 95.3477C90.2148 95.2461 90.3594 95.1133 90.5312 94.9492C90.7109 94.7773 90.8945 94.5938 91.082 94.3984C91.2773 94.2031 91.4648 93.9961 91.6445 93.7773C91.832 93.5586 92 93.3477 92.1484 93.1445C92.3047 92.9414 92.4258 92.7539 92.5117 92.582C92.6055 92.4023 92.6523 92.2539 92.6523 92.1367C92.6523 92.043 92.6211 91.9805 92.5586 91.9492C92.5039 91.918 92.4375 91.9023 92.3594 91.9023C92.1719 91.9023 91.9297 91.9414 91.6328 92.0195C91.3438 92.0977 91.0625 92.207 90.7891 92.3477C90.5234 92.4883 90.293 92.6602 90.0977 92.8633C89.9023 93.0586 89.8047 93.2812 89.8047 93.5312ZM98.3594 99.9531L95.3359 95.1133C95.3281 95.1055 95.3203 95.0781 95.3125 95.0312C95.3047 94.9766 95.3008 94.9336 95.3008 94.9023C95.3008 94.8008 95.3164 94.7148 95.3477 94.6445C95.3867 94.5664 95.4805 94.5273 95.6289 94.5273C95.6602 94.5273 95.7148 94.5469 95.793 94.5859C95.8711 94.6172 95.918 94.6484 95.9336 94.6797C96.1055 94.9531 96.2812 95.2578 96.4609 95.5938C96.6484 95.9297 96.8398 96.2656 97.0352 96.6016C97.2383 96.9375 97.4492 97.2617 97.668 97.5742C97.8867 97.8789 98.1172 98.1406 98.3594 98.3594L98.6406 93.7656C98.6484 93.7656 98.668 93.7656 98.6992 93.7656C98.7383 93.7578 98.7656 93.7539 98.7812 93.7539C98.8516 93.7539 98.9219 93.7656 98.9922 93.7891C99.0625 93.8047 99.1133 93.8555 99.1445 93.9414C99.1523 94.2227 99.1523 94.5703 99.1445 94.9844C99.1445 95.3984 99.1367 95.8242 99.1211 96.2617C99.1133 96.6992 99.1016 97.1211 99.0859 97.5273C99.0781 97.9258 99.0703 98.2461 99.0625 98.4883C99.0547 98.6445 99.0391 98.8789 99.0156 99.1914C99 99.5039 98.9766 99.8555 98.9453 100.246C98.9219 100.645 98.8906 101.062 98.8516 101.5C98.8203 101.938 98.7891 102.352 98.7578 102.742C98.7266 103.133 98.6992 103.484 98.6758 103.797C98.6523 104.117 98.6328 104.348 98.6172 104.488H98.0078L98.3594 99.9531ZM67.2023 127.398C67.1303 127.398 67.0523 127.38 66.9683 127.344C66.8843 127.308 66.8063 127.272 66.7343 127.236L60.4163 123.636C60.2723 123.552 60.1703 123.462 60.1103 123.366C60.0623 123.258 60.0383 123.138 60.0383 123.006C60.0383 122.862 60.0743 122.742 60.1463 122.646C60.2303 122.538 60.3383 122.448 60.4703 122.376L66.6803 118.848C66.7523 118.812 66.8243 118.782 66.8963 118.758C66.9683 118.722 67.0343 118.704 67.0943 118.704C67.2503 118.692 67.3823 118.74 67.4903 118.848C67.5983 118.956 67.6523 119.082 67.6523 119.226C67.6523 119.346 67.6223 119.442 67.5623 119.514C67.5143 119.586 67.4363 119.652 67.3283 119.712L60.9923 123.276L60.9563 122.772L67.2563 126.336C67.4243 126.42 67.5383 126.504 67.5983 126.588C67.6583 126.66 67.6883 126.756 67.6883 126.876C67.6883 127.008 67.6343 127.128 67.5263 127.236C67.4303 127.344 67.3223 127.398 67.2023 127.398ZM69.0947 126.521C69.0947 126.486 69.124 126.439 69.1826 126.381C69.2412 126.322 69.2881 126.293 69.3232 126.293C69.4756 126.633 69.6455 126.99 69.833 127.365C70.0205 127.74 70.2373 128.086 70.4834 128.402C70.7412 128.719 71.0342 128.977 71.3623 129.176C71.6904 129.387 72.0654 129.492 72.4873 129.492C72.8623 129.492 73.1904 129.393 73.4717 129.193C73.7529 128.994 73.9463 128.701 74.0518 128.314C74.1221 127.354 74.1162 126.398 74.0342 125.449C73.9521 124.5 73.8467 123.557 73.7178 122.619C73.5889 121.67 73.46 120.727 73.3311 119.789C73.2021 118.84 73.1318 117.885 73.1201 116.924C73.1201 116.865 73.1143 116.795 73.1025 116.713C73.1025 116.619 73.1143 116.531 73.1377 116.449C73.1611 116.367 73.1963 116.297 73.2432 116.238C73.29 116.18 73.3721 116.15 73.4893 116.15C73.6182 116.15 73.7295 116.232 73.8232 116.396C74.1162 118.107 74.3799 119.848 74.6143 121.617C74.8486 123.387 74.9658 125.139 74.9658 126.873C74.9658 127.342 74.9307 127.775 74.8604 128.174C74.8018 128.572 74.6787 128.912 74.4912 129.193C74.3037 129.486 74.0459 129.715 73.7178 129.879C73.3896 130.055 72.9678 130.143 72.4521 130.143C72.0068 130.143 71.5791 130.037 71.1689 129.826C70.7705 129.627 70.4131 129.352 70.0967 129C69.792 128.66 69.5459 128.273 69.3584 127.84C69.1826 127.406 69.0947 126.967 69.0947 126.521ZM75.9854 126.592C75.9033 126.053 75.8623 125.531 75.8623 125.027C75.8623 124.512 75.8916 123.99 75.9502 123.463C76.0205 122.936 76.1143 122.391 76.2314 121.828C76.3604 121.254 76.5068 120.639 76.6709 119.982C76.6709 119.854 76.7061 119.736 76.7764 119.631C76.8467 119.514 76.9404 119.42 77.0576 119.35C77.1748 119.268 77.2979 119.203 77.4268 119.156C77.5557 119.109 77.6787 119.086 77.7959 119.086C78.0537 119.086 78.2881 119.168 78.499 119.332C78.71 119.496 78.8975 119.695 79.0615 119.93C79.2373 120.164 79.3838 120.416 79.501 120.686C79.6299 120.943 79.7354 121.166 79.8174 121.354C79.9111 121.764 79.9756 122.232 80.0107 122.76C80.0576 123.275 80.0635 123.803 80.0283 124.342C79.9932 124.881 79.9111 125.414 79.7822 125.941C79.6533 126.457 79.4717 126.932 79.2373 127.365C79.0029 127.799 78.6982 128.162 78.3232 128.455C77.96 128.748 77.5264 128.93 77.0225 129C76.7529 129 76.5479 128.912 76.4072 128.736C76.2666 128.549 76.1611 128.326 76.0908 128.068C76.0322 127.799 75.9971 127.529 75.9854 127.26C75.9854 126.99 75.9854 126.768 75.9854 126.592ZM76.8818 126.539C76.8818 126.656 76.8818 126.768 76.8818 126.873C76.8936 126.979 76.9053 127.084 76.917 127.189C76.9404 127.283 76.9639 127.389 76.9873 127.506C77.0225 127.611 77.0635 127.734 77.1104 127.875H77.2158C77.4971 127.875 77.7373 127.781 77.9365 127.594C78.1357 127.406 78.3057 127.166 78.4463 126.873C78.5869 126.568 78.7041 126.234 78.7979 125.871C78.8916 125.496 78.9619 125.133 79.0088 124.781C79.0674 124.418 79.1025 124.084 79.1143 123.779C79.1377 123.463 79.1494 123.211 79.1494 123.023V122.672C79.1494 122.52 79.1436 122.35 79.1318 122.162C79.1201 121.963 79.0967 121.764 79.0615 121.564C79.0381 121.354 78.9971 121.166 78.9385 121.002C78.8799 120.826 78.8037 120.686 78.71 120.58C78.6162 120.475 78.4932 120.422 78.3408 120.422C78.083 120.34 77.8604 120.357 77.6729 120.475C77.4971 120.592 77.3506 120.791 77.2334 121.072C77.1279 121.342 77.0459 121.676 76.9873 122.074C76.9287 122.473 76.8936 122.912 76.8818 123.393C76.8701 123.873 76.8643 124.383 76.8643 124.922C76.876 125.461 76.8818 126 76.8818 126.539ZM80.4678 124.271C80.4678 124.248 80.4736 124.172 80.4854 124.043C80.4971 123.902 80.5205 123.762 80.5557 123.621C80.5908 123.469 80.6494 123.34 80.7314 123.234C80.8252 123.129 80.9482 123.1 81.1006 123.146C81.6162 122.49 82.0732 121.846 82.4717 121.213C82.8818 120.568 83.2686 119.93 83.6318 119.297C83.9951 118.652 84.3467 118.002 84.6865 117.346C85.0381 116.678 85.4131 115.992 85.8115 115.289C85.8701 115.16 85.9346 115.084 86.0049 115.061C86.0752 115.037 86.1631 115.025 86.2686 115.025C86.3389 115.025 86.4326 115.037 86.5498 115.061C86.667 115.084 86.7256 115.16 86.7256 115.289V122.021C87.124 122.021 87.5107 121.975 87.8857 121.881C88.2607 121.787 88.6475 121.74 89.0459 121.74C89.1514 122.08 89.1396 122.309 89.0107 122.426C88.8818 122.543 88.6885 122.619 88.4307 122.654C88.1846 122.689 87.9033 122.719 87.5869 122.742C87.2705 122.754 86.9834 122.812 86.7256 122.918V128.543C86.7256 128.602 86.6846 128.666 86.6025 128.736C86.5322 128.795 86.4443 128.848 86.3389 128.895C86.2451 128.93 86.1455 128.965 86.04 129C85.9463 129.023 85.8701 129.035 85.8115 129.035V123.076L80.4678 124.271ZM85.8115 117.75C85.5537 118.16 85.2607 118.588 84.9326 119.033C84.6162 119.479 84.2998 119.93 83.9834 120.387C83.6787 120.844 83.3857 121.307 83.1045 121.775C82.835 122.232 82.6182 122.689 82.4541 123.146H82.665C82.8994 123.088 83.1924 123.012 83.5439 122.918C83.9072 122.812 84.2588 122.713 84.5986 122.619C84.9385 122.514 85.2256 122.426 85.46 122.355L85.8115 122.25V117.75ZM89.8545 126.592C89.7725 126.053 89.7314 125.531 89.7314 125.027C89.7314 124.512 89.7607 123.99 89.8193 123.463C89.8896 122.936 89.9834 122.391 90.1006 121.828C90.2295 121.254 90.376 120.639 90.54 119.982C90.54 119.854 90.5752 119.736 90.6455 119.631C90.7158 119.514 90.8096 119.42 90.9268 119.35C91.0439 119.268 91.167 119.203 91.2959 119.156C91.4248 119.109 91.5479 119.086 91.665 119.086C91.9229 119.086 92.1572 119.168 92.3682 119.332C92.5791 119.496 92.7666 119.695 92.9307 119.93C93.1064 120.164 93.2529 120.416 93.3701 120.686C93.499 120.943 93.6045 121.166 93.6865 121.354C93.7803 121.764 93.8447 122.232 93.8799 122.76C93.9268 123.275 93.9326 123.803 93.8975 124.342C93.8623 124.881 93.7803 125.414 93.6514 125.941C93.5225 126.457 93.3408 126.932 93.1064 127.365C92.8721 127.799 92.5674 128.162 92.1924 128.455C91.8291 128.748 91.3955 128.93 90.8916 129C90.6221 129 90.417 128.912 90.2764 128.736C90.1357 128.549 90.0303 128.326 89.96 128.068C89.9014 127.799 89.8662 127.529 89.8545 127.26C89.8545 126.99 89.8545 126.768 89.8545 126.592ZM90.751 126.539C90.751 126.656 90.751 126.768 90.751 126.873C90.7627 126.979 90.7744 127.084 90.7861 127.189C90.8096 127.283 90.833 127.389 90.8564 127.506C90.8916 127.611 90.9326 127.734 90.9795 127.875H91.085C91.3662 127.875 91.6064 127.781 91.8057 127.594C92.0049 127.406 92.1748 127.166 92.3154 126.873C92.4561 126.568 92.5732 126.234 92.667 125.871C92.7607 125.496 92.8311 125.133 92.8779 124.781C92.9365 124.418 92.9717 124.084 92.9834 123.779C93.0068 123.463 93.0186 123.211 93.0186 123.023V122.672C93.0186 122.52 93.0127 122.35 93.001 122.162C92.9893 121.963 92.9658 121.764 92.9307 121.564C92.9072 121.354 92.8662 121.166 92.8076 121.002C92.749 120.826 92.6729 120.686 92.5791 120.58C92.4854 120.475 92.3623 120.422 92.21 120.422C91.9521 120.34 91.7295 120.357 91.542 120.475C91.3662 120.592 91.2197 120.791 91.1025 121.072C90.9971 121.342 90.915 121.676 90.8564 122.074C90.7979 122.473 90.7627 122.912 90.751 123.393C90.7393 123.873 90.7334 124.383 90.7334 124.922C90.7451 125.461 90.751 126 90.751 126.539ZM97.0439 128.648C97.0439 128.414 97.1904 128.115 97.4834 127.752C97.7764 127.377 98.1396 126.955 98.5732 126.486C99.0068 126.018 99.4814 125.508 99.9971 124.957C100.513 124.406 100.987 123.838 101.421 123.252C101.854 122.654 102.218 122.051 102.511 121.441C102.804 120.82 102.95 120.211 102.95 119.613C102.95 119.297 102.862 119.027 102.687 118.805C102.511 118.57 102.282 118.371 102.001 118.207C101.731 118.043 101.421 117.914 101.069 117.82C100.729 117.727 100.384 117.656 100.032 117.609C99.6807 117.551 99.3467 117.516 99.0303 117.504C98.7139 117.48 98.4443 117.469 98.2217 117.469C98.1631 117.469 98.0869 117.475 97.9932 117.486C97.8994 117.486 97.7998 117.492 97.6943 117.504C97.6006 117.504 97.5127 117.51 97.4307 117.521C97.3486 117.533 97.3018 117.539 97.29 117.539L97.0615 117.75C97.0615 117.773 97.0557 117.873 97.0439 118.049C97.0439 118.225 97.0381 118.424 97.0264 118.646C97.0264 118.869 97.0264 119.098 97.0264 119.332V119.877C97.0264 121.061 97.0674 122.238 97.1494 123.41C97.2432 124.57 97.29 125.742 97.29 126.926C97.29 126.996 97.29 127.072 97.29 127.154C97.3018 127.236 97.3018 127.318 97.29 127.4C97.2783 127.471 97.2432 127.535 97.1846 127.594C97.1377 127.641 97.0615 127.664 96.9561 127.664C96.8857 127.664 96.8154 127.646 96.7451 127.611C96.6748 127.576 96.6338 127.518 96.6221 127.436L95.9365 118.189C95.9014 118.213 95.8369 118.248 95.7432 118.295C95.6611 118.33 95.5732 118.371 95.4795 118.418C95.3857 118.465 95.292 118.518 95.1982 118.576C95.1162 118.623 95.0635 118.646 95.04 118.646C95.0283 118.646 95.0049 118.652 94.9697 118.664C94.9463 118.664 94.9287 118.664 94.917 118.664C94.8584 118.664 94.7881 118.652 94.7061 118.629C94.6357 118.594 94.6006 118.523 94.6006 118.418C94.6006 118.242 94.6357 118.102 94.7061 117.996C94.7881 117.879 94.8877 117.773 95.0049 117.68C95.1338 117.586 95.2686 117.492 95.4092 117.398C95.5498 117.305 95.6787 117.188 95.7959 117.047C95.9248 116.895 96.0244 116.707 96.0947 116.484C96.1768 116.262 96.2178 115.98 96.2178 115.641C96.4521 115.641 96.5986 115.682 96.6572 115.764C96.7158 115.846 96.751 115.945 96.7627 116.062C96.7744 116.168 96.7861 116.279 96.7979 116.396C96.8213 116.502 96.9092 116.578 97.0615 116.625C97.3896 116.613 97.7822 116.613 98.2393 116.625C98.708 116.637 99.1943 116.678 99.6982 116.748C100.214 116.807 100.718 116.9 101.21 117.029C101.714 117.158 102.159 117.34 102.546 117.574C102.944 117.809 103.255 118.107 103.478 118.471C103.712 118.822 103.817 119.256 103.794 119.771C103.642 120.674 103.349 121.541 102.915 122.373C102.493 123.205 101.989 124.008 101.403 124.781C100.829 125.543 100.202 126.275 99.5225 126.979C98.8545 127.682 98.1865 128.355 97.5186 129C97.5068 129 97.4893 129 97.4658 129C97.4424 129.012 97.4248 129.018 97.4131 129.018C97.3076 129.018 97.2197 128.982 97.1494 128.912C97.0791 128.842 97.0439 128.754 97.0439 128.648ZM105.165 125.203C105.106 125.215 105.019 125.232 104.901 125.256C104.784 125.279 104.661 125.285 104.532 125.273C104.403 125.262 104.292 125.227 104.198 125.168C104.093 125.109 104.04 125.01 104.04 124.869C104.04 124.787 104.058 124.729 104.093 124.693C104.128 124.658 104.187 124.605 104.269 124.535C104.526 124.324 104.743 124.055 104.919 123.727C105.106 123.387 105.276 123.029 105.429 122.654C105.581 122.268 105.739 121.887 105.903 121.512C106.079 121.125 106.278 120.779 106.501 120.475C106.724 120.17 106.999 119.924 107.327 119.736C107.655 119.549 108.06 119.461 108.54 119.473C108.739 119.473 108.962 119.52 109.208 119.613C109.454 119.707 109.683 119.836 109.894 120C110.104 120.152 110.28 120.34 110.421 120.562C110.562 120.785 110.632 121.031 110.632 121.301C110.69 121.395 110.632 121.529 110.456 121.705C110.292 121.881 110.063 122.074 109.771 122.285C109.478 122.484 109.144 122.695 108.769 122.918C108.405 123.129 108.054 123.328 107.714 123.516C107.374 123.703 107.075 123.867 106.817 124.008C106.56 124.148 106.39 124.254 106.308 124.324C106.249 124.441 106.202 124.576 106.167 124.729C106.132 124.881 106.103 125.027 106.079 125.168C106.067 125.297 106.056 125.42 106.044 125.537C106.044 125.643 106.044 125.725 106.044 125.783C106.044 126.006 106.032 126.252 106.009 126.521C105.997 126.791 106.009 127.049 106.044 127.295C106.091 127.529 106.19 127.729 106.343 127.893C106.495 128.045 106.753 128.121 107.116 128.121C107.503 128.121 107.866 128.027 108.206 127.84C108.546 127.641 108.862 127.4 109.155 127.119C109.448 126.838 109.712 126.533 109.946 126.205C110.192 125.877 110.409 125.572 110.597 125.291C110.796 124.998 110.972 124.758 111.124 124.57C111.276 124.383 111.405 124.289 111.511 124.289C111.628 124.289 111.751 124.312 111.88 124.359C112.021 124.395 112.091 124.488 112.091 124.641C112.091 124.852 112.003 125.104 111.827 125.396C111.663 125.689 111.44 126 111.159 126.328C110.89 126.656 110.573 126.984 110.21 127.312C109.858 127.629 109.501 127.916 109.138 128.174C108.774 128.42 108.417 128.625 108.065 128.789C107.714 128.941 107.403 129.018 107.134 129.018C106.606 129.018 106.208 128.889 105.938 128.631C105.669 128.373 105.476 128.051 105.358 127.664C105.253 127.277 105.194 126.867 105.183 126.434C105.183 125.988 105.177 125.578 105.165 125.203ZM108.399 120.457C108.2 120.457 107.989 120.557 107.767 120.756C107.544 120.943 107.333 121.178 107.134 121.459C106.946 121.729 106.788 122.01 106.659 122.303C106.542 122.584 106.483 122.818 106.483 123.006C106.659 123.006 106.911 122.941 107.239 122.812C107.579 122.672 107.913 122.502 108.241 122.303C108.569 122.104 108.856 121.893 109.103 121.67C109.349 121.447 109.472 121.236 109.472 121.037C109.472 120.932 109.431 120.844 109.349 120.773C109.267 120.703 109.167 120.645 109.05 120.598C108.944 120.551 108.833 120.516 108.716 120.492C108.599 120.469 108.493 120.457 108.399 120.457ZM112.741 121.811C112.741 121.799 112.735 121.781 112.724 121.758C112.724 121.723 112.724 121.699 112.724 121.688C112.724 121.512 112.794 121.412 112.935 121.389C113.075 121.354 113.204 121.336 113.321 121.336C113.45 121.336 113.597 121.447 113.761 121.67C113.925 121.881 114.106 122.168 114.306 122.531C114.517 122.883 114.728 123.27 114.938 123.691C115.161 124.113 115.384 124.529 115.606 124.939C115.841 125.338 116.075 125.701 116.31 126.029C116.556 126.357 116.79 126.598 117.013 126.75C117.083 125.684 117.136 124.775 117.171 124.025C117.206 123.275 117.229 122.643 117.241 122.127C117.265 121.611 117.276 121.207 117.276 120.914C117.276 120.609 117.271 120.375 117.259 120.211C117.259 120.047 117.253 119.941 117.241 119.895C117.241 119.836 117.241 119.795 117.241 119.771C117.241 119.561 117.276 119.432 117.347 119.385C117.429 119.338 117.534 119.314 117.663 119.314C117.815 119.314 117.974 119.338 118.138 119.385C118.302 119.432 118.384 119.549 118.384 119.736C118.419 120.498 118.419 121.271 118.384 122.057C118.36 122.83 118.319 123.604 118.261 124.377C118.202 125.139 118.155 125.889 118.12 126.627C118.085 127.365 118.085 128.08 118.12 128.771C118.097 128.795 118.044 128.824 117.962 128.859C117.88 128.883 117.792 128.906 117.698 128.93C117.604 128.953 117.511 128.971 117.417 128.982C117.335 128.994 117.276 129 117.241 129C117.124 128.977 116.942 128.818 116.696 128.525C116.45 128.221 116.175 127.84 115.87 127.383C115.565 126.926 115.249 126.416 114.921 125.854C114.593 125.291 114.276 124.746 113.972 124.219C113.679 123.691 113.421 123.211 113.198 122.777C112.976 122.344 112.823 122.021 112.741 121.811ZM118.999 129.809L123.077 116.432H123.938L119.579 130.512C119.427 130.512 119.292 130.453 119.175 130.336C119.058 130.219 118.999 130.084 118.999 129.932V129.809ZM126.087 127.308C125.955 127.308 125.835 127.254 125.727 127.146C125.631 127.026 125.583 126.906 125.583 126.786C125.583 126.666 125.613 126.57 125.673 126.498C125.745 126.426 125.859 126.348 126.015 126.264L132.405 122.772L132.441 123.258L125.943 119.622C125.847 119.574 125.769 119.514 125.709 119.442C125.661 119.358 125.637 119.256 125.637 119.136C125.637 118.992 125.685 118.866 125.781 118.758C125.889 118.65 126.015 118.602 126.159 118.614C126.219 118.614 126.285 118.632 126.357 118.668C126.441 118.692 126.519 118.728 126.591 118.776L132.909 122.34C133.053 122.424 133.161 122.514 133.233 122.61C133.317 122.706 133.359 122.826 133.359 122.97C133.359 123.114 133.329 123.24 133.269 123.348C133.209 123.444 133.107 123.528 132.963 123.6L126.537 127.146C126.465 127.194 126.387 127.236 126.303 127.272C126.231 127.296 126.159 127.308 126.087 127.308Z" fill="url(#paint0_linear_4_2)"/>
<path d="M91.3911 9.67249V3.43909H75.2723V9.67249H68V22.3548V49.5609H121V22.3548V9.67249H91.3911ZM76.8465 5.01335H89.8168V9.67249H76.8465V5.01335ZM119.426 22.3548H108.001V23.9291H119.426V47.9866H69.5743V23.9291H76.8768C75.9967 25.6347 75.4992 27.5687 75.4992 29.6166C75.4992 36.4789 81.0821 42.0619 87.9445 42.0619C94.8068 42.0619 100.39 36.4789 100.39 29.6166C100.39 27.5687 99.8921 25.6348 99.0121 23.9291H105.902V22.3548H98.0451C95.7833 19.2177 92.0986 17.1714 87.9445 17.1714C83.7903 17.1714 80.1056 19.2177 77.8438 22.3548H69.5743V11.2468H75.2724H91.3912H119.426V22.3548H119.426ZM77.0735 29.6166C77.0735 23.6224 81.9502 18.7456 87.9445 18.7456C93.9387 18.7456 98.8155 23.6224 98.8155 29.6166C98.8155 35.6109 93.9387 40.4876 87.9445 40.4876C81.9502 40.4876 77.0735 35.6109 77.0735 29.6166Z" fill="url(#paint1_linear_4_2)"/>
<path d="M102.803 13.9358V19.6658H114.767V13.9358H102.803ZM113.192 18.0915H104.378V15.5101H113.192V18.0915Z" fill="url(#paint2_linear_4_2)"/>
<path d="M87.9445 20.1813C82.7418 20.1813 78.509 24.414 78.509 29.6167C78.509 34.8193 82.7418 39.052 87.9445 39.052C93.1472 39.052 97.3798 34.8192 97.3798 29.6167C97.3798 24.414 93.1471 20.1813 87.9445 20.1813ZM87.9445 37.4777C83.6098 37.4777 80.0833 33.9512 80.0833 29.6167C80.0833 25.282 83.6099 21.7556 87.9445 21.7556C92.2791 21.7556 95.8056 25.2821 95.8056 29.6167C95.8056 33.9514 92.2791 37.4777 87.9445 37.4777Z" fill="url(#paint3_linear_4_2)"/>
<path d="M81.6574 29.6166H83.2317C83.2317 27.0181 85.3458 24.9041 87.9443 24.9041V23.3298C84.4777 23.3298 81.6574 26.15 81.6574 29.6166Z" fill="url(#paint4_linear_4_2)"/>
<defs>
<linearGradient id="paint0_linear_4_2" x1="48.7826" y1="126.5" x2="140.768" y2="23.2683" gradientUnits="userSpaceOnUse">
<stop stop-color="#D9D9D9"/>
<stop offset="1" stop-color="#373737"/>
</linearGradient>
<linearGradient id="paint1_linear_4_2" x1="56" y1="1.5" x2="112" y2="41" gradientUnits="userSpaceOnUse">
<stop stop-color="#202020"/>
<stop offset="1" stop-color="#D9D9D9"/>
</linearGradient>
<linearGradient id="paint2_linear_4_2" x1="97.5" y1="29.5" x2="126.5" y2="-1.5" gradientUnits="userSpaceOnUse">
<stop stop-color="#202020"/>
<stop offset="1" stop-color="#D9D9D9"/>
</linearGradient>
<linearGradient id="paint3_linear_4_2" x1="93" y1="13" x2="87.9444" y2="39.052" gradientUnits="userSpaceOnUse">
<stop stop-color="#202020"/>
<stop offset="1" stop-color="#D9D9D9"/>
</linearGradient>
<linearGradient id="paint4_linear_4_2" x1="110.5" y1="-21.5" x2="81" y2="51.5" gradientUnits="userSpaceOnUse">
<stop/>
<stop offset="1" stop-color="#D9D9D9"/>
</linearGradient>
</defs>
</svg>
